<svg width="53" height="53" viewBox="0 0 53 53" fill="none" xmlns="http://www.w3.org/2000/svg">
<circle cx="26.5" cy="26.5" r="26.5" fill="#26436F"/>
<path d="M27 8C22.1152 8 21.501 8.0225 19.5817 8.108C17.6625 8.198 16.3552 8.4995 15.21 8.945C14.0087 9.39684 12.9206 10.1056 12.0218 11.0218C11.1062 11.9211 10.3975 13.009 9.945 14.21C9.4995 15.353 9.19575 16.6625 9.108 18.575C9.0225 20.4987 9 21.1108 9 26.0023C9 30.8893 9.0225 31.5013 9.108 33.4205C9.198 35.3375 9.4995 36.6447 9.945 37.79C10.4062 38.9735 11.0205 39.977 12.0218 40.9782C13.0208 41.9795 14.0243 42.596 15.2078 43.055C16.3553 43.5005 17.6603 43.8042 19.5773 43.892C21.4988 43.9775 22.1108 44 27 44C31.8892 44 32.499 43.9775 34.4205 43.892C36.3353 43.802 37.647 43.5005 38.7922 43.055C39.9928 42.6029 41.0801 41.8942 41.9782 40.9782C42.9795 39.977 43.5938 38.9735 44.055 37.79C44.4982 36.6447 44.802 35.3375 44.892 33.4205C44.9775 31.5013 45 30.8892 45 26C45 21.1108 44.9775 20.4988 44.892 18.5773C44.802 16.6625 44.4982 15.353 44.055 14.21C43.6026 13.009 42.8939 11.921 41.9782 11.0218C41.0797 10.1053 39.9915 9.39645 38.79 8.945C37.6425 8.4995 36.333 8.19575 34.4182 8.108C32.4967 8.0225 31.887 8 26.9955 8H27.0023H27ZM25.3867 11.2445H27.0023C31.8083 11.2445 32.3775 11.2603 34.2743 11.348C36.0292 11.4268 36.9832 11.7215 37.6178 11.9668C38.457 12.293 39.0578 12.6845 39.6877 13.3145C40.3177 13.9445 40.707 14.543 41.0333 15.3845C41.2808 16.0168 41.5732 16.9708 41.652 18.7257C41.7397 20.6225 41.7578 21.1918 41.7578 25.9955C41.7578 30.7992 41.7397 31.3707 41.652 33.2675C41.5732 35.0225 41.2785 35.9743 41.0333 36.6087C40.7447 37.3903 40.2841 38.097 39.6855 38.6765C39.0555 39.3065 38.457 39.6958 37.6155 40.022C36.9855 40.2695 36.0315 40.562 34.2743 40.643C32.3775 40.7285 31.8083 40.7487 27.0023 40.7487C22.1963 40.7487 21.6248 40.7285 19.728 40.643C17.973 40.562 17.0212 40.2695 16.3868 40.022C15.6049 39.7338 14.8975 39.2741 14.3167 38.6765C13.7177 38.0961 13.2564 37.3887 12.9668 36.6065C12.7215 35.9742 12.4268 35.0203 12.348 33.2653C12.2625 31.3685 12.2445 30.7992 12.2445 25.991C12.2445 21.185 12.2625 20.618 12.348 18.7212C12.429 16.9662 12.7215 16.0122 12.969 15.3777C13.2952 14.5385 13.6867 13.9377 14.3167 13.3077C14.9467 12.6778 15.5452 12.2885 16.3868 11.9622C17.0212 11.7148 17.973 11.4223 19.728 11.3412C21.3885 11.2648 22.032 11.2423 25.3867 11.24V11.2445ZM36.6097 14.2325C36.3261 14.2325 36.0452 14.2884 35.7832 14.3969C35.5211 14.5055 35.283 14.6646 35.0824 14.8651C34.8818 15.0657 34.7227 15.3038 34.6142 15.5659C34.5056 15.828 34.4497 16.1088 34.4497 16.3925C34.4497 16.6762 34.5056 16.957 34.6142 17.2191C34.7227 17.4812 34.8818 17.7193 35.0824 17.9199C35.283 18.1204 35.5211 18.2795 35.7832 18.3881C36.0452 18.4966 36.3261 18.5525 36.6097 18.5525C37.1826 18.5525 37.732 18.3249 38.1371 17.9199C38.5422 17.5148 38.7698 16.9654 38.7698 16.3925C38.7698 15.8196 38.5422 15.2702 38.1371 14.8651C37.732 14.4601 37.1826 14.2325 36.6097 14.2325ZM27.0023 16.757C25.7762 16.7379 24.5585 16.9628 23.4202 17.4188C22.2819 17.8748 21.2457 18.5527 20.3718 19.413C19.498 20.2732 18.8041 21.2988 18.3304 22.4298C17.8567 23.5609 17.6128 24.7749 17.6128 26.0011C17.6128 27.2274 17.8567 28.4414 18.3304 29.5724C18.8041 30.7035 19.498 31.729 20.3718 32.5893C21.2457 33.4496 22.2819 34.1275 23.4202 34.5834C24.5585 35.0394 25.7762 35.2644 27.0023 35.2453C29.429 35.2074 31.7435 34.2168 33.4462 32.4873C35.1489 30.7578 36.1033 28.4281 36.1033 26.0011C36.1033 23.5741 35.1489 21.2444 33.4462 19.5149C31.7435 17.7854 29.429 16.7949 27.0023 16.757ZM27.0023 19.9993C28.5937 19.9993 30.1201 20.6315 31.2454 21.7568C32.3708 22.8822 33.003 24.4085 33.003 26C33.003 27.5915 32.3708 29.1178 31.2454 30.2432C30.1201 31.3685 28.5937 32.0007 27.0023 32.0007C25.4108 32.0007 23.8844 31.3685 22.7591 30.2432C21.6337 29.1178 21.0015 27.5915 21.0015 26C21.0015 24.4085 21.6337 22.8822 22.7591 21.7568C23.8844 20.6315 25.4108 19.9993 27.0023 19.9993Z" fill="white"/>
</svg>
