<svg width="135" height="66" viewBox="0 0 135 66" fill="none" xmlns="http://www.w3.org/2000/svg">
<path d="M51.5117 48.9255C50.2905 48.7108 49.0543 48.5542 47.8481 48.273C44.558 47.5025 41.7142 45.9701 39.304 43.5277C36.4602 40.6453 35.0029 37.1169 34.3998 33.2601C33.5929 28.1049 34.4707 23.1857 37.2307 18.6636C39.5701 14.8326 42.9182 12.3194 47.1935 11.0874C50.0287 10.2697 52.9218 10.1152 55.8879 10.4693C59.3541 10.8835 62.4961 11.9502 65.2111 14.1608C65.8979 14.7188 66.5289 15.3455 67.074 15.8413C65.928 18.1593 64.8312 20.3806 63.7302 22.6105C62.6206 20.8377 61.3071 19.1916 59.3133 18.1571C56.6691 16.7878 53.9241 16.2577 50.9881 16.7835C47.8374 17.3458 45.2555 18.8418 43.4269 21.5052C42.2615 23.2029 41.5382 25.0959 41.2249 27.1262C40.6218 31.0366 41.3515 34.7024 43.5922 37.9647C45.3413 40.5122 47.876 41.8579 50.9537 42.2957C53.1236 42.6048 55.2118 42.4996 57.3173 41.8729C59.9464 41.0896 61.9295 39.5099 63.3396 37.2135C64.6746 35.0393 65.2862 32.6442 65.2476 30.0858C65.1746 25.2933 66.4516 20.8678 69.392 17.099C71.8473 13.9526 75.0387 11.7098 79.0844 10.9372C79.8033 10.7998 80.5438 10.714 81.2284 10.4736C81.4774 10.3856 81.7242 9.92846 81.7478 9.62369C81.8401 8.41966 81.6963 7.18129 81.9109 6.00515C82.4732 2.91673 84.3405 0.918586 87.3516 0C87.9955 0 88.6394 0 89.2832 0C89.9679 0.291887 90.7835 0.439979 91.3114 0.907858C92.2622 1.75133 93.1572 1.63328 94.2882 1.3972C96.3572 0.965806 98.1879 1.52168 99.686 3.16784C101.36 5.00716 101.598 7.26069 101.706 9.5357C101.815 11.8536 101.734 14.1801 101.727 16.5045C101.727 16.7578 101.676 17.0089 101.618 17.5476C101.057 16.5818 100.373 15.9014 100.283 15.1502C100.053 13.2165 100.152 11.2484 99.9908 9.30391C99.8856 8.02261 99.6967 6.71555 99.2997 5.50079C98.6129 3.39104 95.9215 2.16769 94.1745 3.01116C93.653 3.26227 93.4555 3.52411 93.7088 4.15296C94.5544 6.25626 94.49 8.46259 94.3913 10.6861C93.1636 10.5187 92.9168 9.84475 92.8932 8.76305C92.8632 7.26499 92.5605 5.77336 92.3545 4.10359C90.7234 5.38704 89.4936 8.76091 89.9829 10.3298C90.1074 10.7312 90.5559 11.2012 90.9509 11.3192C92.9576 11.918 94.7025 12.9246 96.3422 14.2209C100.538 17.5368 102.624 22.0053 103.174 27.1541C103.502 30.2296 103.255 33.3309 102.249 36.3657C100.162 42.6456 96.0632 46.6869 89.6202 48.2794C88.4526 48.567 87.2508 48.7173 86.066 48.9319C84.8491 48.9319 83.6344 48.9319 82.4175 48.9319C81.7736 48.8546 81.1168 48.8267 80.4837 48.6958C76.8973 47.9532 73.5664 46.6955 70.8879 44.0406C70.4393 43.5964 70.3964 43.2916 70.6518 42.8087C71.7206 40.7719 72.7809 38.733 73.8175 36.7456C73.8755 36.8164 74.0922 37.0053 74.2189 37.2435C75.5602 39.7482 77.7601 41.2012 80.3721 41.9738C82.3295 42.5533 84.3641 42.6134 86.4416 42.3172C89.5386 41.8772 92.0304 40.5573 93.8697 38.0312C95.8421 35.3248 96.4645 32.2514 96.3744 28.9655C96.2885 25.8106 95.3785 22.9453 93.3439 20.533C92.509 19.5436 91.3758 18.8074 90.38 17.9554C90.1439 20.0909 90.1331 21.9838 90.1568 23.879C90.161 24.1794 90.2555 24.5164 90.41 24.7739C91.9145 27.2936 92.0068 29.9506 91.2191 32.6978C90.395 35.5716 88.3239 37.0976 85.5187 37.514C82.66 37.9389 80.0051 37.1942 78.2709 34.7453C75.7191 31.1418 76.2084 24.3855 81.1297 22.192C81.398 22.0718 81.7371 21.7263 81.7478 21.4752C81.8058 19.9857 81.7757 18.4919 81.7757 16.9123C79.2088 17.3093 77.1978 18.4383 75.5302 20.254C73.0878 22.9131 72.2679 26.1432 72.1177 29.6287C72.0554 31.0796 72.1499 32.5733 71.8344 33.9684C70.8664 38.2437 69.07 42.0897 65.5245 44.9099C63.4383 46.5689 61.129 47.7515 58.5084 48.2859C57.328 48.5263 56.139 48.7173 54.9521 48.9319C53.7996 48.9255 52.6557 48.9255 51.5117 48.9255ZM83.233 10.9823C85.0037 11.2141 86.6713 11.4308 88.4484 11.6626C88.2552 8.17499 88.781 5.12519 91.1762 2.68064C88.4226 0.03863 84.9178 2.38661 83.8769 4.69595C82.9755 6.69409 83.4262 8.73087 83.233 10.9823ZM88.296 18.7023C88.3689 18.4705 88.4054 18.4061 88.4054 18.3395C88.414 17.4467 88.4183 16.5539 88.4205 15.6632C88.4226 13.3903 88.4205 13.3903 86.2034 13.0813C86.066 13.062 85.9373 12.9825 85.7999 12.9632C84.9865 12.8452 84.1731 12.7379 83.2716 12.6155C83.2716 14.3604 83.2459 15.9272 83.2995 17.4896C83.3081 17.7364 83.6494 18.1507 83.8833 18.185C85.3385 18.4039 86.8065 18.537 88.296 18.7023ZM83.3425 18.9169C83.3425 19.8612 83.3425 20.7347 83.3425 21.428C85.0788 21.7542 86.7099 22.0632 88.3732 22.3766C88.3732 21.5932 88.3732 20.7154 88.3732 19.756C86.7099 19.4792 85.0638 19.2045 83.3425 18.9169Z" fill="white"/>
<path d="M0.00869751 11.1561C0.384288 11.0853 0.757731 10.9522 1.13332 10.9501C7.03331 10.9372 12.9397 10.7913 18.8333 10.9973C22.2994 11.1175 25.3922 12.476 27.7981 15.1953C30.3328 18.0605 31.4016 21.4237 31.084 25.1238C30.6569 30.0837 28.0277 34.5243 22.8317 36.2262C21.2585 36.7413 19.5523 37.0139 17.8954 37.0804C14.6825 37.2114 11.4588 37.1191 8.24163 37.1191C7.89395 37.1191 7.54626 37.1191 7.09126 37.1191C7.09126 38.997 7.09126 40.7741 7.09126 42.5533C7.09126 44.339 7.09126 46.1225 7.09126 48.0648C4.69821 48.0648 2.35453 48.0648 0.00869751 48.0648C0.00869751 35.7626 0.00869751 23.4583 0.00869751 11.1561ZM7.13418 30.6847C10.7956 30.6847 14.3627 30.646 17.9297 30.7018C19.6317 30.7297 21.0096 30.0623 22.1921 28.972C24.2418 27.0811 24.8384 24.0571 23.5507 21.3464C22.5849 19.3139 21.0439 17.9318 18.6723 17.8159C16.4016 17.7064 14.1287 17.6485 11.8559 17.6013C10.2956 17.5691 8.73527 17.5948 7.13203 17.5948C7.13418 21.9881 7.13418 26.2634 7.13418 30.6847Z" fill="white"/>
<path d="M134.775 48.0669C126.164 48.0669 117.553 48.0669 108.876 48.0669C108.876 35.681 108.876 23.3681 108.876 10.9994C111.104 10.9994 113.308 10.9994 115.675 10.9994C115.675 11.3943 115.675 11.8064 115.675 12.2163C115.675 21.5846 115.69 30.9507 115.654 40.319C115.65 41.3428 115.92 41.6604 116.97 41.6518C122.904 41.6046 128.84 41.6282 134.775 41.6282C134.775 43.7745 134.775 45.9207 134.775 48.0669Z" fill="white"/>
<path d="M57.2595 31.3971C54.3621 34.1314 48.2195 33.5283 46.582 31.6825C47.7345 31.176 48.9836 30.7146 50.1469 30.0922C51.1277 29.5664 51.059 28.7637 50.4731 27.8816C49.943 27.0832 49.4708 26.2333 49.078 25.3598C48.256 23.5355 48.7904 22.1597 50.6298 21.3463C53.6259 20.0242 56.7894 20.3462 59.9251 20.5007C60.4702 20.5286 61.0046 20.7196 61.5455 20.8355C60.1783 21.0716 58.7983 21.2519 57.4462 21.5545C52.6322 22.634 52.8017 25.3662 55.051 28.6886C55.6798 29.6222 56.4739 30.442 57.2595 31.3971Z" fill="white"/>
<path d="M44.5493 37.2392C45.3756 36.9194 46.2598 36.6833 47.0346 36.2498C48.1485 35.6252 49.1229 35.7841 50.2539 36.2498C52.6255 37.2263 54.907 36.8271 56.7935 35.6016C58.5148 36.2369 60.0815 36.8142 61.6483 37.3916C61.2426 38.4862 60.5601 38.8725 59.2788 38.5377C58.7101 38.3874 58.1563 38.0676 57.5897 38.0483C56.9909 38.0269 56.3621 38.2157 55.7805 38.411C53.7716 39.0828 51.7541 39.1579 49.8204 38.2823C48.8825 37.8573 48.0734 37.8595 47.1483 38.1792C45.6224 38.7051 45.3627 38.5806 44.5493 37.2392Z" fill="white"/>
<path d="M43.3733 35.0951C45.0495 34.4727 46.5905 33.8653 48.1615 33.348C48.5135 33.2321 49.0157 33.3244 49.3656 33.494C51.7736 34.6529 54.1323 34.7173 56.4932 33.3566C56.7379 33.2171 57.1907 33.1849 57.4225 33.3201C58.8498 34.1529 60.3349 34.6487 62.0154 34.5757C62.3653 34.5607 63.0049 34.8676 63.0392 35.0972C63.1272 35.696 62.6486 35.8119 62.0691 35.857C60.526 35.9772 59.03 35.9214 57.5599 35.3505C57.2186 35.2174 56.7057 35.2582 56.373 35.4234C54.0744 36.5803 51.7801 36.5459 49.533 35.3891C48.5607 34.889 47.7409 35.3247 46.8523 35.4728C46.026 35.6102 45.1954 35.7175 44.3649 35.8334C43.6974 35.9278 43.384 35.6166 43.3733 35.0951Z" fill="white"/>
<path d="M59.4184 39.5313C56.5231 41.8921 49.8312 42.0467 46.6312 39.3682C47.7236 38.3702 48.904 38.2929 50.2197 38.9346C52.0096 39.8103 53.8597 39.7802 55.6131 38.8896C56.5103 38.4346 57.2614 38.1341 58.1478 38.8337C58.517 39.1278 58.9827 39.2995 59.4184 39.5313Z" fill="white"/>
<path d="M55.6517 25.5615C55.6539 24.2244 56.6905 23.235 58.1113 23.2157C59.4699 23.1963 60.6224 24.2394 60.6589 25.5229C60.6932 26.7891 59.2853 28.3237 58.0126 28.182C56.6476 28.0318 55.6002 27.3922 55.6517 25.5615Z" fill="white"/>
<path d="M2.77293 57.8774C3.23222 57.6091 3.76019 57.4718 4.33753 57.4718C4.99213 57.4718 5.55659 57.622 6.01588 57.9203C6.47303 58.2187 6.81857 58.6372 7.04178 59.1651C7.07397 59.2424 7.15124 59.2939 7.23494 59.2939H8.22435C8.29303 59.2939 8.35742 59.2596 8.3982 59.2038C8.43683 59.1458 8.44756 59.075 8.42181 59.0106C8.10202 58.1586 7.58048 57.4911 6.87437 57.0211C6.17041 56.5532 5.31621 56.3149 4.33753 56.3149C3.53055 56.3149 2.78795 56.5102 2.13121 56.8923C1.47231 57.2765 0.946488 57.8195 0.568751 58.5041C0.191015 59.1887 0 59.9721 0 60.8328C0 61.6934 0.191015 62.4746 0.568751 63.155C0.948634 63.8375 1.47446 64.3783 2.13121 64.7604C2.78795 65.1445 3.53055 65.3377 4.33753 65.3377C5.30763 65.3377 6.15968 65.1038 6.86579 64.6402C7.57619 64.1744 8.09987 63.5113 8.41966 62.6678C8.44327 62.6034 8.43468 62.5304 8.39605 62.4746C8.35742 62.4167 8.29303 62.3845 8.22221 62.3845H7.23279C7.14909 62.3845 7.07183 62.4338 7.03963 62.5111C6.81643 63.0326 6.47088 63.4447 6.01588 63.7388C5.55874 64.0328 4.99213 64.183 4.33753 64.183C3.75805 64.183 3.23222 64.0457 2.77293 63.7774C2.31578 63.5091 1.95092 63.1185 1.68908 62.6184C1.4251 62.1119 1.28988 61.511 1.28988 60.8328C1.28988 60.1545 1.4251 59.5515 1.68908 59.0407C1.95092 58.5384 2.31578 58.1457 2.77293 57.8774Z" fill="white"/>
<path d="M14.5965 58.605C14.0643 58.3109 13.4633 58.1628 12.8109 58.1628C12.1584 58.1628 11.5596 58.3109 11.0317 58.605C10.5015 58.9011 10.0766 59.3261 9.76753 59.8691C9.46062 60.4099 9.30609 61.0474 9.30609 61.7642C9.30609 62.481 9.45847 63.1185 9.76109 63.6593C10.0637 64.2023 10.4865 64.6273 11.0123 64.9235C11.536 65.2175 12.1348 65.3677 12.7873 65.3677C13.4397 65.3677 14.0428 65.2196 14.5772 64.9256C15.1159 64.6294 15.5473 64.2023 15.8542 63.655C16.1612 63.1099 16.3157 62.4746 16.3157 61.7664C16.3157 61.0495 16.1633 60.4121 15.8607 59.8712C15.5581 59.3261 15.131 58.9011 14.5965 58.605ZM12.7873 64.2088C12.3902 64.2088 12.0189 64.1186 11.6863 63.9383C11.3579 63.7623 11.0896 63.4898 10.89 63.1292C10.6883 62.7643 10.5852 62.3051 10.5852 61.7642C10.5852 61.2234 10.6883 60.7641 10.89 60.3992C11.0896 60.0386 11.36 59.7661 11.6927 59.5901C12.0297 59.4098 12.4031 59.3196 12.8002 59.3196C13.1972 59.3196 13.5707 59.4119 13.9076 59.5901C14.2403 59.7661 14.5128 60.0408 14.7167 60.4014C14.9228 60.7662 15.0279 61.2234 15.0279 61.7642C15.0279 62.3029 14.9206 62.7622 14.7124 63.1249C14.5043 63.4876 14.2295 63.7602 13.8969 63.9383C13.5578 64.1186 13.1843 64.2088 12.7873 64.2088Z" fill="white"/>
<path d="M20.7411 58.1371C20.2089 58.1371 19.7238 58.253 19.301 58.4826C19.0756 58.605 18.8782 58.7552 18.7065 58.9355V58.4698C18.7065 58.3539 18.6121 58.2594 18.4962 58.2594H17.6505C17.5347 58.2594 17.4402 58.3539 17.4402 58.4698V65.0608C17.4402 65.1767 17.5347 65.2712 17.6505 65.2712H18.4962C18.6121 65.2712 18.7065 65.1767 18.7065 65.0608V61.4616C18.7065 60.7405 18.8782 60.191 19.2173 59.8305C19.5564 59.4699 20.005 59.2939 20.5844 59.2939C21.1489 59.2939 21.5781 59.457 21.8979 59.7961C22.2156 60.1331 22.3765 60.6353 22.3765 61.292V65.0587C22.3765 65.1746 22.471 65.269 22.5869 65.269H23.4196C23.5355 65.269 23.6299 65.1746 23.6299 65.0587V61.1955C23.6299 60.2168 23.3574 59.4527 22.8187 58.9269C22.2821 58.4032 21.5824 58.1371 20.7411 58.1371Z" fill="white"/>
<path d="M28.8989 61.6548C28.6113 61.5303 28.2186 61.4015 27.74 61.2706C27.3537 61.1611 27.0446 61.0581 26.8171 60.9701C26.6132 60.8907 26.4415 60.777 26.3063 60.6353C26.1861 60.5108 26.1282 60.3499 26.1282 60.146C26.1282 59.9163 26.2312 59.7253 26.4437 59.5643C26.6712 59.3926 26.9781 59.3046 27.3537 59.3046C27.7829 59.3046 28.1199 59.4077 28.3581 59.6094C28.592 59.8112 28.7165 60.0687 28.738 60.3992C28.7444 60.5108 28.8367 60.5967 28.9483 60.5967H29.7939C29.8519 60.5967 29.9077 60.5731 29.9463 60.5302C29.9871 60.4894 30.0064 60.4314 30.0043 60.3735C29.9699 59.6867 29.7081 59.1394 29.2273 58.7445C28.7551 58.356 28.1349 58.1586 27.3794 58.1586C26.9008 58.1586 26.4651 58.2466 26.0852 58.4183C25.6989 58.5942 25.3942 58.8368 25.1795 59.1394C24.9628 59.4485 24.8512 59.7897 24.8512 60.1546C24.8512 60.631 24.9756 61.0195 25.2203 61.3092C25.4542 61.5882 25.744 61.8007 26.0788 61.9402C26.3921 62.0733 26.8042 62.2064 27.3043 62.3373C27.6734 62.4317 27.9675 62.5197 28.18 62.6013C28.3731 62.6742 28.5319 62.7751 28.6543 62.8974C28.7594 63.0026 28.8109 63.1357 28.8109 63.3031C28.8109 63.5606 28.7079 63.7731 28.4955 63.9491C28.2744 64.1337 27.9567 64.226 27.549 64.226C27.0746 64.226 26.6969 64.1251 26.4243 63.9233C26.1604 63.728 26.0166 63.4834 25.9822 63.17C25.9715 63.0627 25.8813 62.9811 25.774 62.9811H24.9048C24.8447 62.9811 24.7889 63.0069 24.7503 63.0498C24.7117 63.0927 24.6902 63.1528 24.6966 63.2108C24.7589 63.874 25.0572 64.4062 25.5852 64.7926C26.0981 65.1682 26.7634 65.3592 27.5618 65.3592C28.0405 65.3592 28.4718 65.2712 28.8453 65.0973C29.223 64.9213 29.5235 64.6767 29.7381 64.3698C29.9549 64.0586 30.0665 63.698 30.0665 63.2966C30.0579 62.8631 29.9356 62.5047 29.7016 62.2343C29.4784 61.9853 29.208 61.7878 28.8989 61.6548Z" fill="white"/>
<path d="M34.3547 58.2593H32.7558V56.8171C32.7558 56.7012 32.6613 56.6068 32.5454 56.6068H31.6891C31.5732 56.6068 31.4788 56.7012 31.4788 56.8171V58.2593H30.7726C30.6568 58.2593 30.5623 58.3538 30.5623 58.4697V59.1822C30.5623 59.2981 30.6568 59.3926 30.7726 59.3926H31.4788V63.2729C31.4788 63.9662 31.6462 64.477 31.9788 64.7946C32.3072 65.1101 32.803 65.2689 33.4511 65.2689H34.3569C34.4727 65.2689 34.5672 65.1745 34.5672 65.0586V64.3353C34.5672 64.2194 34.4727 64.125 34.3569 64.125H33.5842C33.2623 64.125 33.0348 64.067 32.9232 63.9576C32.8459 63.8803 32.7558 63.7 32.7558 63.2729V59.3926H34.3547C34.4706 59.3926 34.565 59.2981 34.565 59.1822V58.4697C34.565 58.3538 34.4728 58.2593 34.3547 58.2593Z" fill="white"/>
<path d="M38.8446 58.1371C38.2544 58.1371 37.7457 58.2616 37.3315 58.5041C37.1298 58.6243 36.9516 58.7681 36.7971 58.9355V58.4676C36.7971 58.3517 36.7027 58.2573 36.5868 58.2573H35.7412C35.6253 58.2573 35.5308 58.3517 35.5308 58.4676V65.0587C35.5308 65.1746 35.6253 65.269 35.7412 65.269H36.5868C36.7027 65.269 36.7971 65.1746 36.7971 65.0587V61.3779C36.7971 60.6718 36.9602 60.1674 37.2821 59.882C37.6105 59.5901 38.0591 59.4398 38.615 59.4398H38.8446C38.9605 59.4398 39.0549 59.3454 39.0549 59.2295V58.3496C39.0549 58.2315 38.9626 58.1371 38.8446 58.1371Z" fill="white"/>
<path d="M45.822 58.2594H44.9764C44.8605 58.2594 44.766 58.3538 44.766 58.4697V62.0539C44.766 62.7751 44.5943 63.3245 44.2552 63.6851C43.9161 64.0456 43.4676 64.2216 42.8881 64.2216C42.3236 64.2216 41.8944 64.0585 41.5746 63.7194C41.257 63.3846 41.096 62.8802 41.096 62.2235V58.4697C41.096 58.3538 41.0016 58.2594 40.8857 58.2594H40.0529C39.937 58.2594 39.8426 58.3538 39.8426 58.4697V62.3201C39.8426 63.3009 40.1152 64.0628 40.6539 64.5886C41.1904 65.1123 41.8901 65.3785 42.7314 65.3785C43.2637 65.3785 43.7509 65.2604 44.1823 65.0265C44.4055 64.9063 44.5986 64.7582 44.766 64.5822V65.0587C44.766 65.1745 44.8605 65.269 44.9764 65.269H45.822C45.9379 65.269 46.0323 65.1745 46.0323 65.0587V58.4676C46.0323 58.3538 45.9379 58.2594 45.822 58.2594Z" fill="white"/>
<path d="M49.4749 59.5815C49.7947 59.3991 50.1617 59.3068 50.5652 59.3068C51.0717 59.3068 51.5009 59.4291 51.8357 59.6717C52.1706 59.912 52.383 60.2383 52.4839 60.6654C52.5075 60.7598 52.5912 60.8263 52.6878 60.8263H53.5935C53.6579 60.8263 53.718 60.7963 53.7566 60.7469C53.7974 60.6976 53.8124 60.631 53.7974 60.5688C53.6343 59.8305 53.2651 59.2381 52.7007 58.8046C52.1384 58.3753 51.4194 58.1586 50.563 58.1586C49.9084 58.1586 49.3182 58.3088 48.8053 58.6028C48.2902 58.899 47.8802 59.3261 47.5905 59.8691C47.3008 60.4078 47.1548 61.0452 47.1548 61.7599C47.1548 62.4768 47.3008 63.1121 47.5905 63.6508C47.8802 64.1938 48.2902 64.6209 48.8053 64.917C49.3182 65.2111 49.9106 65.3613 50.563 65.3613C51.4108 65.3613 52.1298 65.1403 52.6942 64.7024C53.263 64.2624 53.6343 63.6744 53.7974 62.9532C53.8124 62.891 53.7974 62.8245 53.7566 62.7751C53.7158 62.7257 53.6558 62.6957 53.5914 62.6957H52.6857C52.5869 62.6957 52.5032 62.7622 52.4818 62.8588C52.3809 63.2945 52.1684 63.6229 51.8336 63.8654C51.4988 64.1079 51.0695 64.2302 50.563 64.2302C50.1595 64.2302 49.7925 64.138 49.4727 63.9555C49.1573 63.7774 48.9018 63.5005 48.7173 63.1378C48.5284 62.7665 48.4318 62.3029 48.4318 61.7599C48.4318 61.2169 48.5284 60.7555 48.7173 60.3906C48.904 60.0344 49.1572 59.7618 49.4749 59.5815Z" fill="white"/>
<path d="M56.8731 59.5815C57.1928 59.3991 57.5598 59.3068 57.9633 59.3068C58.4699 59.3068 58.8991 59.4291 59.2339 59.6717C59.5687 59.912 59.7812 60.2383 59.8821 60.6654C59.9057 60.7598 59.9894 60.8263 60.086 60.8263H60.9917C61.0561 60.8263 61.1162 60.7963 61.1548 60.7469C61.1956 60.6976 61.2106 60.631 61.1956 60.5688C61.0324 59.8305 60.6633 59.2381 60.0988 58.8046C59.5365 58.3753 58.8175 58.1586 57.9612 58.1586C57.3066 58.1586 56.7164 58.3088 56.2034 58.6028C55.6883 58.899 55.2784 59.3261 54.9887 59.8691C54.6989 60.4078 54.553 61.0452 54.553 61.7599C54.553 62.4768 54.6989 63.1121 54.9887 63.6508C55.2784 64.1938 55.6883 64.6209 56.2034 64.917C56.7164 65.2111 57.3087 65.3613 57.9612 65.3613C58.809 65.3613 59.5279 65.1403 60.0924 64.7024C60.6611 64.2624 61.0324 63.6744 61.1956 62.9532C61.2106 62.891 61.1956 62.8245 61.1548 62.7751C61.114 62.7257 61.0539 62.6957 60.9895 62.6957H60.0838C59.9851 62.6957 59.9014 62.7622 59.8799 62.8588C59.779 63.2945 59.5666 63.6229 59.2318 63.8654C58.897 64.1079 58.4677 64.2302 57.9612 64.2302C57.5577 64.2302 57.1907 64.138 56.8709 63.9555C56.5554 63.7774 56.3 63.5005 56.1154 63.1378C55.9266 62.7665 55.83 62.3029 55.83 61.7599C55.83 61.2169 55.9266 60.7555 56.1154 60.3906C56.3022 60.0344 56.5576 59.7618 56.8731 59.5815Z" fill="white"/>
<path d="M62.9725 55.772C62.7472 55.772 62.5519 55.8514 62.3909 56.0059C62.2278 56.1626 62.1462 56.3622 62.1462 56.5983C62.1462 56.8322 62.2278 57.0318 62.3888 57.1928C62.5497 57.3537 62.7472 57.4353 62.9725 57.4353C63.1979 57.4353 63.3953 57.3537 63.5563 57.1928C63.7173 57.0318 63.7988 56.8322 63.7988 56.5983C63.7988 56.3622 63.7173 56.1647 63.5542 56.0059C63.3932 55.8514 63.1979 55.772 62.9725 55.772Z" fill="white"/>
<path d="M63.3954 58.2594H62.5498C62.4339 58.2594 62.3395 58.3538 62.3395 58.4697V65.0608C62.3395 65.1767 62.4339 65.2711 62.5498 65.2711H63.3954C63.5113 65.2711 63.6058 65.1767 63.6058 65.0608V58.4697C63.6058 58.3538 63.5113 58.2594 63.3954 58.2594Z" fill="white"/>
<path d="M66.7778 58.0834C66.81 58.1028 66.8465 58.1113 66.883 58.1113C66.9195 58.1113 66.956 58.1028 66.9882 58.0834L69.4628 56.6476C69.5272 56.609 69.5679 56.5403 69.5679 56.4652V55.7054C69.5679 55.6282 69.5272 55.5595 69.4585 55.5208C69.3919 55.4844 69.3104 55.4865 69.246 55.5273L66.7714 57.0726C66.7092 57.1112 66.6727 57.1777 66.6727 57.2507V57.9032C66.6727 57.9761 66.7135 58.0469 66.7778 58.0834Z" fill="white"/>
<path d="M70.0079 58.605C69.4756 58.3109 68.8747 58.1628 68.2222 58.1628C67.5697 58.1628 66.9709 58.3109 66.443 58.605C65.9129 58.9011 65.4879 59.3261 65.1788 59.8691C64.8719 60.4099 64.7174 61.0474 64.7174 61.7642C64.7174 62.481 64.8698 63.1185 65.1724 63.6593C65.475 64.2023 65.8978 64.6273 66.4237 64.9235C66.9473 65.2175 67.5461 65.3677 68.1986 65.3677C68.851 65.3677 69.4541 65.2196 69.9885 64.9256C70.5273 64.6294 70.9586 64.2023 71.2656 63.655C71.5725 63.1099 71.727 62.4746 71.727 61.7664C71.727 61.0495 71.5746 60.4121 71.272 59.8712C70.9694 59.3261 70.5444 58.9011 70.0079 58.605ZM68.1986 64.2088C67.8015 64.2088 67.4302 64.1186 67.0976 63.9383C66.7692 63.7623 66.5009 63.4898 66.3013 63.1292C66.0996 62.7643 65.9966 62.3051 65.9966 61.7642C65.9966 61.2234 66.0996 60.7641 66.3013 60.3992C66.5009 60.0386 66.7713 59.7661 67.104 59.5901C67.441 59.4098 67.8144 59.3196 68.2115 59.3196C68.6085 59.3196 68.982 59.4119 69.3189 59.5901C69.6516 59.7661 69.9242 60.0408 70.1281 60.4014C70.3341 60.7662 70.4393 61.2234 70.4393 61.7642C70.4393 62.3029 70.3319 62.7622 70.1238 63.1249C69.9156 63.4876 69.6409 63.7602 69.3082 63.9383C68.9691 64.1186 68.5978 64.2088 68.1986 64.2088Z" fill="white"/>
<path d="M76.1525 58.1371C75.6202 58.1371 75.1352 58.253 74.7124 58.4826C74.487 58.605 74.2896 58.7552 74.1179 58.9355V58.4698C74.1179 58.3539 74.0234 58.2594 73.9075 58.2594H73.0619C72.946 58.2594 72.8516 58.3539 72.8516 58.4698V65.0608C72.8516 65.1767 72.946 65.2712 73.0619 65.2712H73.9075C74.0234 65.2712 74.1179 65.1767 74.1179 65.0608V61.4616C74.1179 60.7405 74.2896 60.191 74.6287 59.8305C74.9678 59.4699 75.4163 59.2939 75.9958 59.2939C76.5603 59.2939 76.9895 59.457 77.3093 59.7961C77.627 60.1331 77.7879 60.6353 77.7879 61.292V65.0587C77.7879 65.1746 77.8824 65.269 77.9983 65.269H78.831C78.9469 65.269 79.0413 65.1746 79.0413 65.0587V61.1955C79.0413 60.2168 78.7687 59.4527 78.23 58.9269C77.6935 58.4032 76.9938 58.1371 76.1525 58.1371Z" fill="white"/>
<path d="M90.043 63.2623C90.2297 62.9961 90.4165 62.6978 90.6032 62.3759L91.5196 60.7941C91.5583 60.7297 91.5583 60.6482 91.5196 60.5838C91.4831 60.5194 91.4123 60.4786 91.3372 60.4786H90.4315C90.3585 60.4786 90.2898 60.5172 90.2512 60.5816L89.4786 61.8758C89.3627 62.0754 89.2597 62.2428 89.1717 62.3759L86.579 59.7489C86.285 59.4312 86.0682 59.1565 85.9373 58.929C85.815 58.7187 85.7549 58.5084 85.7549 58.2873C85.7549 58.0255 85.845 57.8173 86.0296 57.6542C86.2206 57.4825 86.4696 57.4009 86.7893 57.4009C87.0834 57.4009 87.3195 57.4846 87.5105 57.6606C87.695 57.828 87.7809 58.0555 87.7745 58.3581C87.7723 58.4139 87.7959 58.4697 87.8346 58.5105C87.8732 58.5513 87.929 58.5728 87.9848 58.5728H88.8304C88.942 58.5728 89.0364 58.4848 89.0407 58.371C89.0686 57.7529 88.8669 57.2421 88.4419 56.8536C88.0256 56.4737 87.4826 56.2806 86.828 56.2806C86.1347 56.2806 85.5703 56.4673 85.1453 56.8322C84.7118 57.2056 84.4929 57.7014 84.4929 58.3002C84.4929 58.6436 84.5658 58.9698 84.7075 59.266C84.8127 59.487 84.9672 59.721 85.1646 59.9678C84.6088 60.2211 84.1709 60.5537 83.8597 60.9615C83.4949 61.4401 83.3103 62.0067 83.3103 62.6463C83.3103 63.1914 83.4434 63.6786 83.7052 64.0971C83.967 64.5157 84.3362 64.844 84.8041 65.0737C85.2655 65.3012 85.7999 65.4149 86.3944 65.4149C87.0083 65.4149 87.5706 65.3012 88.0621 65.0758C88.4956 64.8784 88.9077 64.5822 89.2918 64.1916L90.2856 65.2067C90.3242 65.2475 90.38 65.269 90.4358 65.269H91.5347C91.6205 65.269 91.6956 65.2175 91.7278 65.1402C91.76 65.0629 91.7428 64.9707 91.6827 64.9106L90.043 63.2623ZM87.5684 64.0006C87.225 64.1701 86.828 64.256 86.388 64.256C86.0296 64.256 85.7098 64.183 85.4351 64.0392C85.1646 63.8975 84.95 63.7001 84.7976 63.4554C84.6453 63.2108 84.5701 62.936 84.5701 62.6184C84.5701 61.8028 85.0337 61.219 85.9845 60.837L88.4398 63.3267C88.1608 63.6271 87.8689 63.8525 87.5684 64.0006Z" fill="white"/>
<path d="M100.991 56.9417C100.298 56.5897 99.4563 56.4116 98.4948 56.4116H95.9966C95.8807 56.4116 95.7862 56.506 95.7862 56.6219V65.0587C95.7862 65.1746 95.8807 65.2691 95.9966 65.2691H98.4948C99.4563 65.2691 100.295 65.0931 100.991 64.7454C101.695 64.3934 102.24 63.8783 102.613 63.2108C102.985 62.5498 103.171 61.7578 103.171 60.8564C103.171 59.9464 102.985 59.1502 102.613 58.4848C102.24 57.8173 101.693 57.298 100.991 56.9417ZM97.0504 57.5319H98.4926C99.6044 57.5319 100.456 57.8259 101.027 58.4054C101.6 58.9849 101.89 59.8112 101.89 60.8586C101.89 61.8973 101.6 62.715 101.027 63.2859C100.456 63.8568 99.6022 64.1466 98.4905 64.1466H97.0482V57.5319H97.0504Z" fill="white"/>
<path d="M105.361 58.2594H104.515C104.399 58.2594 104.305 58.3538 104.305 58.4697V65.0608C104.305 65.1767 104.399 65.2711 104.515 65.2711H105.361C105.476 65.2711 105.571 65.1767 105.571 65.0608V58.4697C105.571 58.3538 105.479 58.2594 105.361 58.2594Z" fill="white"/>
<path d="M104.94 55.772C104.714 55.772 104.519 55.8514 104.358 56.0059C104.195 56.1626 104.113 56.3622 104.113 56.5983C104.113 56.8322 104.195 57.0318 104.356 57.1928C104.517 57.3537 104.712 57.4353 104.94 57.4353C105.165 57.4353 105.363 57.3537 105.524 57.1928C105.684 57.0318 105.766 56.8322 105.766 56.5983C105.766 56.3622 105.684 56.1626 105.521 56.0059C105.358 55.8514 105.163 55.772 104.94 55.772Z" fill="white"/>
<path d="M110.887 61.6548C110.6 61.5303 110.207 61.4015 109.728 61.2706C109.342 61.1611 109.031 61.0581 108.805 60.9701C108.601 60.8907 108.43 60.777 108.295 60.6353C108.174 60.5108 108.116 60.3499 108.116 60.146C108.116 59.9163 108.219 59.7253 108.432 59.5643C108.659 59.3926 108.966 59.3046 109.342 59.3046C109.771 59.3046 110.108 59.4077 110.346 59.6094C110.58 59.8112 110.705 60.0687 110.726 60.3992C110.733 60.5108 110.825 60.5967 110.937 60.5967H111.782C111.84 60.5967 111.896 60.5731 111.935 60.5302C111.975 60.4894 111.995 60.4314 111.992 60.3735C111.958 59.6867 111.696 59.1394 111.216 58.7445C110.743 58.356 110.123 58.1586 109.368 58.1586C108.889 58.1586 108.453 58.2466 108.073 58.4183C107.687 58.5942 107.382 58.8368 107.168 59.1394C106.951 59.4485 106.839 59.7897 106.839 60.1546C106.839 60.631 106.964 61.0195 107.209 61.3092C107.442 61.5882 107.732 61.8007 108.067 61.9402C108.383 62.0733 108.792 62.2064 109.293 62.3373C109.662 62.4317 109.958 62.5219 110.168 62.6013C110.361 62.6742 110.52 62.7751 110.642 62.8974C110.748 63.0026 110.797 63.1357 110.797 63.3031C110.797 63.5606 110.694 63.7731 110.482 63.9491C110.26 64.1337 109.941 64.226 109.535 64.226C109.061 64.226 108.683 64.1251 108.41 63.9233C108.146 63.728 108.003 63.4834 107.97 63.17C107.96 63.0627 107.87 62.9811 107.762 62.9811H106.893C106.833 62.9811 106.777 63.0069 106.738 63.0498C106.698 63.0927 106.678 63.1528 106.685 63.2108C106.747 63.874 107.045 64.4062 107.573 64.7926C108.086 65.1682 108.752 65.3592 109.55 65.3592C110.029 65.3592 110.46 65.2712 110.833 65.0973C111.213 64.9213 111.512 64.6767 111.726 64.3698C111.943 64.0586 112.055 63.698 112.055 63.2966C112.046 62.8631 111.924 62.5047 111.69 62.2343C111.467 61.9853 111.198 61.7878 110.887 61.6548Z" fill="white"/>
<path d="M118.038 58.6007C117.536 58.3088 116.948 58.1607 116.285 58.1607C115.624 58.1607 115.025 58.3066 114.504 58.5985C113.98 58.8904 113.566 59.3175 113.274 59.8669C112.984 60.4099 112.838 61.0474 112.838 61.7642C112.838 62.4811 112.986 63.1185 113.28 63.6572C113.576 64.2002 113.991 64.6273 114.514 64.9235C115.036 65.2175 115.63 65.3677 116.283 65.3677C117.124 65.3677 117.834 65.1488 118.397 64.7153C118.959 64.2817 119.333 63.713 119.504 63.0241C119.519 62.9618 119.506 62.8953 119.466 62.8438C119.425 62.7923 119.365 62.7622 119.3 62.7622H118.408C118.313 62.7622 118.229 62.8266 118.204 62.9189C118.094 63.3245 117.88 63.6379 117.543 63.8761C117.206 64.1143 116.783 64.2345 116.283 64.2345C115.901 64.2345 115.542 64.1508 115.22 63.9856C114.903 63.8225 114.643 63.5799 114.448 63.2601C114.282 62.9897 114.177 62.6678 114.134 62.3008H119.373C119.481 62.3008 119.571 62.2192 119.581 62.1119C119.599 61.9509 119.607 61.7213 119.607 61.4251C119.607 60.8285 119.47 60.2769 119.202 59.7854C118.931 59.2918 118.541 58.8926 118.038 58.6007ZM114.139 61.1912C114.214 60.6203 114.426 60.1824 114.785 59.8562C115.19 59.4871 115.669 59.3068 116.248 59.3068C116.633 59.3068 116.989 59.3883 117.313 59.5493C117.633 59.7103 117.88 59.9399 118.064 60.2533C118.219 60.5151 118.307 60.8285 118.326 61.1912H114.139Z" fill="white"/>
<path d="M122.127 57.9547H122.646C122.751 57.9547 122.842 57.8774 122.854 57.7723C122.902 57.4117 123.065 57.4117 123.153 57.4117C123.226 57.4117 123.29 57.4246 123.346 57.4525C123.417 57.4868 123.503 57.5426 123.608 57.6263C123.762 57.7379 123.9 57.8237 124.02 57.8817C124.157 57.9482 124.32 57.9804 124.503 57.9804C124.848 57.9804 125.144 57.8602 125.383 57.6242C125.614 57.3924 125.75 57.0704 125.788 56.6669C125.793 56.609 125.773 56.5489 125.735 56.506C125.694 56.463 125.638 56.4373 125.58 56.4373H125.074C124.968 56.4373 124.878 56.5146 124.865 56.6197C124.848 56.7485 124.807 56.8429 124.747 56.9009C124.64 57.0039 124.475 57.0018 124.346 56.9374C124.269 56.8987 124.174 56.8386 124.056 56.7528C123.906 56.6541 123.773 56.5746 123.659 56.5167C123.526 56.4502 123.367 56.4158 123.191 56.4158C122.844 56.4158 122.552 56.536 122.326 56.77C122.11 56.9953 121.974 57.3151 121.921 57.7207C121.912 57.7808 121.932 57.8409 121.97 57.8881C122.009 57.9289 122.065 57.9547 122.127 57.9547Z" fill="white"/>
<path d="M124.033 58.1371C123.5 58.1371 123.015 58.253 122.593 58.4826C122.367 58.605 122.17 58.7552 121.998 58.9355V58.4698C121.998 58.3539 121.904 58.2594 121.788 58.2594H120.942C120.826 58.2594 120.732 58.3539 120.732 58.4698V65.0608C120.732 65.1767 120.826 65.2712 120.942 65.2712H121.788C121.904 65.2712 121.998 65.1767 121.998 65.0608V61.4616C121.998 60.7405 122.17 60.191 122.509 59.8305C122.848 59.4699 123.297 59.2939 123.876 59.2939C124.44 59.2939 124.87 59.4592 125.19 59.7961C125.507 60.1331 125.668 60.6353 125.668 61.292V65.0587C125.668 65.1746 125.763 65.269 125.878 65.269H126.711C126.827 65.269 126.922 65.1746 126.922 65.0587V61.1955C126.922 60.2168 126.649 59.4527 126.11 58.9269C125.574 58.4032 124.874 58.1371 124.033 58.1371Z" fill="white"/>
<path d="M134.543 59.8691C134.238 59.3261 133.813 58.9011 133.279 58.605C132.746 58.3109 132.145 58.1628 131.493 58.1628C130.841 58.1628 130.242 58.3109 129.714 58.605C129.184 58.9011 128.759 59.3261 128.45 59.8691C128.143 60.4099 127.988 61.0474 127.988 61.7642C127.988 62.481 128.141 63.1185 128.443 63.6593C128.746 64.2023 129.166 64.6273 129.694 64.9235C130.218 65.2175 130.817 65.3677 131.469 65.3677C132.122 65.3677 132.725 65.2196 133.261 64.9256C133.8 64.6294 134.232 64.2023 134.538 63.655C134.845 63.1099 135 62.4746 135 61.7664C134.998 61.0474 134.845 60.4099 134.543 59.8691ZM132.577 63.9383C132.24 64.1186 131.866 64.2088 131.469 64.2088C131.072 64.2088 130.701 64.1186 130.368 63.9383C130.04 63.7623 129.772 63.4898 129.572 63.1292C129.37 62.7643 129.267 62.3051 129.267 61.7642C129.267 61.2234 129.37 60.7641 129.572 60.3992C129.772 60.0386 130.042 59.7661 130.375 59.5901C130.712 59.4098 131.085 59.3196 131.482 59.3196C131.879 59.3196 132.253 59.4119 132.59 59.5901C132.922 59.7661 133.195 60.0408 133.399 60.4014C133.605 60.7662 133.71 61.2255 133.71 61.7642C133.71 62.3029 133.605 62.7622 133.395 63.1249C133.184 63.4876 132.909 63.7602 132.577 63.9383Z" fill="white"/>
</svg>
