<svg width="143" height="70" viewBox="0 0 143 70" fill="none" xmlns="http://www.w3.org/2000/svg">
<path d="M54.5604 51.8211C53.2669 51.5938 51.9575 51.4278 50.6799 51.13C47.195 50.3139 44.183 48.6908 41.6301 46.1039C38.618 43.0509 37.0745 39.3137 36.4357 35.2286C35.581 29.7683 36.5107 24.558 39.4341 19.7682C41.912 15.7105 45.4583 13.0485 49.9866 11.7436C52.9896 10.8775 56.0539 10.7139 59.1955 11.0889C62.8668 11.5277 66.1949 12.6575 69.0706 14.9989C69.798 15.59 70.4663 16.2538 71.0437 16.7789C69.8298 19.234 68.6682 21.5868 67.502 23.9487C66.3267 22.071 64.9355 20.3274 62.8236 19.2317C60.023 17.7814 57.1155 17.2199 54.0057 17.7769C50.6686 18.3724 47.9338 19.9569 45.997 22.778C44.7626 24.5762 43.9966 26.5812 43.6647 28.7317C43.0259 32.8735 43.7988 36.7563 46.1721 40.2116C48.0248 42.91 50.7095 44.3353 53.9693 44.799C56.2676 45.1264 58.4795 45.015 60.7095 44.3512C63.4943 43.5215 65.5947 41.8483 67.0883 39.416C68.5022 37.1132 69.1501 34.5762 69.1092 31.8665C69.0319 26.7903 70.3845 22.1029 73.4989 18.111C76.0995 14.7784 79.4798 12.4029 83.7649 11.5845C84.5264 11.439 85.3107 11.3481 86.0359 11.0935C86.2995 11.0003 86.561 10.5161 86.586 10.1933C86.6837 8.91798 86.5314 7.60631 86.7587 6.36057C87.3543 3.08935 89.3321 0.972953 92.5214 0C93.2034 0 93.8854 0 94.5674 0C95.2925 0.309163 96.1564 0.466017 96.7156 0.961587C97.7227 1.85498 98.6706 1.72995 99.8686 1.47989C102.06 1.02296 103.999 1.61174 105.586 3.35532C107.359 5.3035 107.611 7.69042 107.725 10.1001C107.841 12.5552 107.755 15.0194 107.748 17.4813C107.748 17.7496 107.693 18.0155 107.632 18.5861C107.038 17.5632 106.313 16.8425 106.218 16.0469C105.975 13.9987 106.079 11.9141 105.909 9.85456C105.797 8.49743 105.597 7.11301 105.177 5.82635C104.449 3.59174 101.599 2.29599 99.7481 3.18938C99.1957 3.45535 98.9866 3.73268 99.2548 4.39875C100.15 6.62654 100.082 8.96344 99.9777 11.3185C98.6774 11.1412 98.416 10.4274 98.391 9.2817C98.3592 7.69497 98.0386 6.11506 97.8204 4.34646C96.0927 5.70587 94.7902 9.27943 95.3085 10.9412C95.4403 11.3663 95.9154 11.8641 96.3337 11.9891C98.4592 12.6234 100.307 13.6895 102.044 15.0626C106.488 18.5748 108.698 23.3077 109.28 28.7612C109.628 32.0188 109.366 35.3036 108.3 38.518C106.09 45.1696 101.749 49.4501 94.9243 51.1369C93.6876 51.4415 92.4146 51.6006 91.1598 51.8279C89.8708 51.8279 88.5842 51.8279 87.2952 51.8279C86.6133 51.7461 85.9176 51.7165 85.247 51.5779C81.4484 50.7913 77.9203 49.4592 75.0833 46.6472C74.6082 46.1766 74.5627 45.8538 74.8333 45.3423C75.9653 43.185 77.0883 41.0254 78.1863 38.9204C78.2477 38.9954 78.4773 39.1955 78.6114 39.4478C80.0322 42.1007 82.3623 43.6397 85.1288 44.458C87.202 45.0718 89.3571 45.1355 91.5576 44.8218C94.8379 44.3557 97.4771 42.9577 99.4253 40.2821C101.514 37.4155 102.174 34.1602 102.078 30.6798C101.987 27.3382 101.023 24.3034 98.8684 21.7482C97.9841 20.7003 96.7838 19.9205 95.729 19.018C95.4789 21.2799 95.4676 23.2849 95.4926 25.2922C95.4971 25.6105 95.5972 25.9674 95.7608 26.2402C97.3544 28.909 97.4521 31.7233 96.6178 34.633C95.7449 37.6769 93.5512 39.2932 90.5801 39.7342C87.5521 40.1843 84.7401 39.3955 82.9033 36.8017C80.2004 32.9849 80.7187 25.8287 85.9313 23.5055C86.2154 23.3782 86.5746 23.0122 86.586 22.7462C86.6474 21.1685 86.6155 19.5864 86.6155 17.9132C83.8967 18.3338 81.7667 19.5295 80.0004 21.4527C77.4134 24.2693 76.545 27.6905 76.3859 31.3823C76.32 32.919 76.42 34.5012 76.0858 35.9788C75.0606 40.5071 73.1579 44.5808 69.4024 47.5679C67.1928 49.3251 64.7468 50.5776 61.9712 51.1437C60.7209 51.3983 59.4615 51.6006 58.2044 51.8279C56.9837 51.8211 55.772 51.8211 54.5604 51.8211ZM88.1591 11.6322C90.0345 11.8778 91.8008 12.1074 93.6831 12.3529C93.4785 8.65883 94.0354 5.42853 96.5724 2.8393C93.6558 0.0409187 89.9436 2.52786 88.841 4.97388C87.8863 7.09028 88.3637 9.2476 88.1591 11.6322ZM93.5217 19.8091C93.599 19.5636 93.6376 19.4954 93.6376 19.425C93.6467 18.4793 93.6513 17.5336 93.6535 16.5902C93.6558 14.1828 93.6535 14.1828 91.3053 13.8555C91.1598 13.835 91.0234 13.7509 90.8779 13.7305C90.0163 13.6054 89.1548 13.4918 88.2 13.3622C88.2 15.2103 88.1727 16.8698 88.2295 18.5248C88.2386 18.7862 88.6001 19.2249 88.8479 19.2613C90.3891 19.4932 91.944 19.6341 93.5217 19.8091ZM88.275 20.0365C88.275 21.0367 88.275 21.9619 88.275 22.6962C90.1141 23.0417 91.8417 23.3691 93.6035 23.701C93.6035 22.8712 93.6035 21.9415 93.6035 20.9253C91.8417 20.6321 90.0982 20.3411 88.275 20.0365Z" fill="#0171BD"/>
<path d="M0.00909424 11.8165C0.406914 11.7415 0.80246 11.6006 1.20028 11.5983C7.44946 11.5846 13.7055 11.4301 19.9478 11.6483C23.6191 11.7756 26.8949 13.2146 29.4432 16.0948C32.1279 19.1296 33.26 22.6918 32.9235 26.6109C32.4712 31.8644 29.6864 36.5677 24.1829 38.3704C22.5166 38.916 20.7094 39.2047 18.9544 39.2752C15.5513 39.4138 12.1369 39.3161 8.7293 39.3161C8.36103 39.3161 7.99276 39.3161 7.51083 39.3161C7.51083 41.3052 7.51083 43.1874 7.51083 45.072C7.51083 46.9633 7.51083 48.8524 7.51083 50.9097C4.97616 50.9097 2.49376 50.9097 0.00909424 50.9097C0.00909424 37.8794 0.00909424 24.8468 0.00909424 11.8165ZM7.5563 32.5009C11.4345 32.5009 15.2126 32.4599 18.9908 32.5191C20.7935 32.5463 22.2529 31.8416 23.5055 30.6868C25.6764 28.6841 26.3084 25.4811 24.9444 22.6099C23.9215 20.4572 22.2893 18.9932 19.7773 18.8704C17.3722 18.7545 14.9648 18.6931 12.5575 18.6431C10.9093 18.6067 9.25442 18.634 7.5563 18.634C7.5563 23.2896 7.5563 27.818 7.5563 32.5009Z" fill="#29AAE3"/>
<path d="M142.751 50.9118C133.631 50.9118 124.511 50.9118 115.32 50.9118C115.32 37.7928 115.32 24.7512 115.32 11.6504C117.68 11.6504 120.014 11.6504 122.522 11.6504C122.522 12.0687 122.522 12.5051 122.522 12.9393C122.522 22.8621 122.538 32.7826 122.499 42.7053C122.494 43.7897 122.781 44.1261 123.892 44.117C130.178 44.067 136.466 44.092 142.751 44.092C142.751 46.3653 142.751 48.6385 142.751 50.9118Z" fill="#2BA9E3"/>
<path d="M60.6482 33.2555C57.5793 36.1516 51.0732 35.5128 49.3387 33.5578C50.5595 33.0213 51.8825 32.5326 53.1146 31.8733C54.1535 31.3164 54.0807 30.4662 53.4601 29.5319C52.8986 28.6862 52.3985 27.786 51.9825 26.8608C51.1119 24.9285 51.6779 23.4714 53.6261 22.6098C56.7995 21.2095 60.1503 21.5505 63.4715 21.7142C64.0489 21.7437 64.615 21.946 65.1878 22.0688C63.7398 22.3188 62.2781 22.5098 60.8459 22.8303C55.747 23.9738 55.9266 26.8676 58.309 30.3866C58.975 31.3755 59.8161 32.2439 60.6482 33.2555Z" fill="#2BA9E3"/>
<path d="M47.1859 39.4432C48.0611 39.1045 48.9977 38.8545 49.8184 38.3953C50.9982 37.7337 52.0302 37.902 53.2283 38.3953C55.7402 39.4296 58.1567 39.0068 60.1549 37.7087C61.978 38.3816 63.6375 38.9931 65.297 39.6046C64.8673 40.764 64.1444 41.1732 62.7873 40.8186C62.1849 40.6594 61.5984 40.3207 60.9982 40.3002C60.364 40.2775 59.6979 40.4776 59.0819 40.6844C56.9541 41.396 54.8173 41.4755 52.7691 40.548C51.7756 40.0979 50.9186 40.1002 49.9389 40.4389C48.3226 40.9959 48.0475 40.864 47.1859 39.4432Z" fill="#2BA9E3"/>
<path d="M45.9402 37.1724C47.7156 36.5131 49.3478 35.8698 51.0118 35.322C51.3846 35.1992 51.9166 35.297 52.2871 35.4765C54.8377 36.7041 57.336 36.7723 59.8366 35.3311C60.0957 35.1833 60.5754 35.1492 60.8209 35.2924C62.3326 36.1744 63.9057 36.6996 65.6857 36.6223C66.0562 36.6064 66.7336 36.9314 66.77 37.1747C66.8632 37.8089 66.3563 37.9317 65.7425 37.9794C64.108 38.1067 62.5236 38.0476 60.9664 37.4429C60.605 37.302 60.0616 37.3452 59.7093 37.5202C57.2746 38.7455 54.8445 38.7091 52.4644 37.4838C51.4346 36.9542 50.5663 37.4156 49.6251 37.5725C48.7499 37.718 47.8702 37.8316 46.9904 37.9544C46.2834 38.0544 45.9516 37.7248 45.9402 37.1724Z" fill="#2BA9E3"/>
<path d="M62.935 41.871C59.8684 44.3716 52.7804 44.5353 49.391 41.6983C50.5481 40.6412 51.7984 40.5594 53.1919 41.2391C55.0878 42.1666 57.0473 42.1347 58.9046 41.1913C59.8548 40.7094 60.6504 40.3912 61.5893 41.1322C61.9803 41.4437 62.4736 41.6255 62.935 41.871Z" fill="#2BA9E3"/>
<path d="M58.9455 27.0745C58.9478 25.6583 60.0458 24.6103 61.5507 24.5899C62.9896 24.5694 64.2104 25.6742 64.249 27.0336C64.2854 28.3748 62.7941 30.0002 61.4461 29.8502C60.0003 29.6911 58.8909 29.0136 58.9455 27.0745Z" fill="#2BA9E3"/>
<path d="M2.93704 61.3029C3.42352 61.0187 3.98274 60.8732 4.59425 60.8732C5.28759 60.8732 5.88546 61.0324 6.37193 61.3483C6.85614 61.6643 7.22213 62.1076 7.45855 62.6668C7.49265 62.7487 7.57448 62.8032 7.66314 62.8032H8.71111C8.78386 62.8032 8.85205 62.7669 8.89524 62.7077C8.93616 62.6464 8.94753 62.5714 8.92025 62.5032C8.58154 61.6007 8.02914 60.8937 7.28123 60.3958C6.53561 59.9003 5.63085 59.6479 4.59425 59.6479C3.7395 59.6479 2.95296 59.8548 2.25734 60.2594C1.55945 60.6664 1.00251 61.2415 0.602413 61.9667C0.20232 62.6918 0 63.5216 0 64.4331C0 65.3447 0.20232 66.1722 0.602413 66.8928C1.00478 67.6157 1.56173 68.1886 2.25734 68.5932C2.95296 69.0001 3.7395 69.2047 4.59425 69.2047C5.62176 69.2047 6.52424 68.9569 7.27214 68.4659C8.02459 67.9726 8.57926 67.2702 8.91798 66.3768C8.94298 66.3086 8.93389 66.2313 8.89297 66.1722C8.85205 66.1108 8.78386 66.0767 8.70884 66.0767H7.66087C7.57221 66.0767 7.49038 66.129 7.45628 66.2108C7.21986 66.7632 6.85386 67.1997 6.37193 67.5111C5.88773 67.8226 5.28759 67.9817 4.59425 67.9817C3.98047 67.9817 3.42352 67.8362 2.93704 67.5521C2.45284 67.2679 2.06639 66.8542 1.78905 66.3245C1.50944 65.788 1.36623 65.1515 1.36623 64.4331C1.36623 63.7148 1.50944 63.076 1.78905 62.535C2.06639 62.003 2.45284 61.587 2.93704 61.3029Z" fill="#0171BD"/>
<path d="M15.4604 62.0735C14.8966 61.7621 14.2601 61.6052 13.5691 61.6052C12.878 61.6052 12.2438 61.7621 11.6845 62.0735C11.123 62.3872 10.6729 62.8373 10.3456 63.4125C10.0205 63.9853 9.85684 64.6605 9.85684 65.4197C9.85684 66.179 10.0182 66.8542 10.3388 67.427C10.6593 68.0022 11.1071 68.4523 11.6641 68.766C12.2188 69.0774 12.853 69.2365 13.5441 69.2365C14.2351 69.2365 14.8739 69.0797 15.44 68.7683C16.0105 68.4545 16.4675 68.0022 16.7925 67.4225C17.1176 66.8451 17.2813 66.1722 17.2813 65.422C17.2813 64.6628 17.1199 63.9876 16.7994 63.4147C16.4788 62.8373 16.0265 62.3872 15.4604 62.0735ZM13.5441 68.009C13.1235 68.009 12.7302 67.9135 12.3779 67.7226C12.0301 67.5361 11.7459 67.2474 11.5345 66.8655C11.3208 66.4791 11.2117 65.9926 11.2117 65.4197C11.2117 64.8469 11.3208 64.3604 11.5345 63.974C11.7459 63.5921 12.0323 63.3033 12.3847 63.1169C12.7416 62.926 13.1371 62.8305 13.5577 62.8305C13.9783 62.8305 14.3738 62.9283 14.7307 63.1169C15.0831 63.3033 15.3718 63.5943 15.5877 63.9762C15.8059 64.3627 15.9173 64.8469 15.9173 65.4197C15.9173 65.9903 15.8037 66.4768 15.5832 66.861C15.3627 67.2452 15.0717 67.5339 14.7193 67.7226C14.3602 67.9135 13.9646 68.009 13.5441 68.009Z" fill="#0171BD"/>
<path d="M21.9687 61.5779C21.405 61.5779 20.8912 61.7006 20.4434 61.9439C20.2047 62.0734 19.9956 62.2326 19.8137 62.4235V61.9302C19.8137 61.8075 19.7137 61.7075 19.5909 61.7075H18.6953C18.5725 61.7075 18.4725 61.8075 18.4725 61.9302V68.9114C18.4725 69.0342 18.5725 69.1342 18.6953 69.1342H19.5909C19.7137 69.1342 19.8137 69.0342 19.8137 68.9114V65.0991C19.8137 64.3353 19.9956 63.7534 20.3547 63.3715C20.7139 62.9896 21.189 62.8032 21.8028 62.8032C22.4007 62.8032 22.8553 62.9759 23.194 63.3351C23.5305 63.692 23.701 64.2239 23.701 64.9196V68.9091C23.701 69.0319 23.801 69.1319 23.9237 69.1319H24.8058C24.9285 69.1319 25.0285 69.0319 25.0285 68.9091V64.8173C25.0285 63.7807 24.7398 62.9714 24.1693 62.4144C23.6009 61.8598 22.8599 61.5779 21.9687 61.5779Z" fill="#0171BD"/>
<path d="M30.6094 65.3037C30.3047 65.1719 29.8887 65.0355 29.3818 64.8968C28.9726 64.7809 28.6453 64.6717 28.4043 64.5785C28.1883 64.4944 28.0065 64.374 27.8633 64.2239C27.736 64.0921 27.6746 63.9216 27.6746 63.7056C27.6746 63.4624 27.7837 63.2601 28.0088 63.0896C28.2497 62.9077 28.5748 62.8145 28.9726 62.8145C29.4273 62.8145 29.7842 62.9236 30.0365 63.1373C30.2843 63.351 30.4161 63.6238 30.4389 63.9739C30.4457 64.0921 30.5434 64.183 30.6616 64.183H31.5573C31.6187 64.183 31.6778 64.158 31.7187 64.1125C31.7619 64.0693 31.7824 64.008 31.7801 63.9466C31.7437 63.2191 31.4664 62.6395 30.9572 62.2212C30.4571 61.8097 29.8001 61.6006 28.9999 61.6006C28.493 61.6006 28.0315 61.6938 27.6291 61.8756C27.2199 62.0621 26.8971 62.3189 26.6698 62.6395C26.4402 62.9668 26.322 63.3283 26.322 63.7147C26.322 64.2194 26.4539 64.6308 26.713 64.9377C26.9608 65.2332 27.2677 65.4583 27.6223 65.6061C27.9542 65.747 28.3907 65.8879 28.9203 66.0266C29.3113 66.1266 29.6228 66.2198 29.8478 66.3062C30.0524 66.3835 30.2206 66.4904 30.3502 66.6199C30.4616 66.7313 30.5162 66.8723 30.5162 67.0496C30.5162 67.3224 30.407 67.5474 30.182 67.7338C29.9478 67.9293 29.6114 68.0271 29.1795 68.0271C28.6771 68.0271 28.277 67.9202 27.9883 67.7065C27.7087 67.4997 27.5564 67.2405 27.52 66.9086C27.5086 66.795 27.4132 66.7086 27.2995 66.7086H26.3788C26.3152 66.7086 26.2561 66.7359 26.2152 66.7813C26.172 66.8268 26.1515 66.8904 26.1583 66.9518C26.2243 67.6543 26.5402 68.218 27.0995 68.6272C27.6428 69.025 28.3475 69.2274 29.1931 69.2274C29.7001 69.2274 30.157 69.1341 30.5525 68.95C30.9526 68.7636 31.2709 68.5045 31.4982 68.1794C31.7278 67.8498 31.846 67.4679 31.846 67.0428C31.8369 66.5836 31.7073 66.2039 31.4596 65.9175C31.2231 65.6538 30.9367 65.4447 30.6094 65.3037Z" fill="#0171BD"/>
<path d="M36.388 61.7074H34.6944V60.1798C34.6944 60.0571 34.5944 59.957 34.4716 59.957H33.5646C33.4419 59.957 33.3418 60.0571 33.3418 60.1798V61.7074H32.5939C32.4712 61.7074 32.3712 61.8075 32.3712 61.9302V62.6849C32.3712 62.8077 32.4712 62.9077 32.5939 62.9077H33.3418V67.0178C33.3418 67.752 33.5191 68.2931 33.8715 68.6295C34.2193 68.9637 34.7444 69.1319 35.431 69.1319H36.3903C36.513 69.1319 36.613 69.0319 36.613 68.9091V68.143C36.613 68.0203 36.513 67.9202 36.3903 67.9202H35.5719C35.2309 67.9202 34.9899 67.8589 34.8717 67.7429C34.7899 67.6611 34.6944 67.4701 34.6944 67.0178V62.9077H36.388C36.5108 62.9077 36.6108 62.8077 36.6108 62.6849V61.9302C36.6108 61.8075 36.513 61.7074 36.388 61.7074Z" fill="#0171BD"/>
<path d="M41.1436 61.5779C40.5185 61.5779 39.9797 61.7097 39.541 61.9666C39.3273 62.0939 39.1386 62.2462 38.9749 62.4235V61.928C38.9749 61.8052 38.8749 61.7052 38.7522 61.7052H37.8565C37.7338 61.7052 37.6337 61.8052 37.6337 61.928V68.9091C37.6337 69.0319 37.7338 69.1319 37.8565 69.1319H38.7522C38.8749 69.1319 38.9749 69.0319 38.9749 68.9091V65.0105C38.9749 64.2626 39.1477 63.7284 39.4887 63.426C39.8365 63.1169 40.3116 62.9577 40.9004 62.9577H41.1436C41.2664 62.9577 41.3664 62.8577 41.3664 62.735V61.8007C41.3664 61.6779 41.2687 61.5779 41.1436 61.5779Z" fill="#0171BD"/>
<path d="M48.534 61.7075H47.6383C47.5156 61.7075 47.4155 61.8075 47.4155 61.9303V65.7266C47.4155 66.4904 47.2337 67.0724 46.8745 67.4543C46.5153 67.8362 46.0402 68.0226 45.4264 68.0226C44.8286 68.0226 44.3739 67.8499 44.0352 67.4907C43.6988 67.1361 43.5283 66.6018 43.5283 65.9062V61.9303C43.5283 61.8075 43.4282 61.7075 43.3055 61.7075H42.4235C42.3007 61.7075 42.2007 61.8075 42.2007 61.9303V66.0085C42.2007 67.0474 42.4894 67.8544 43.06 68.4113C43.6283 68.966 44.3694 69.2479 45.2605 69.2479C45.8243 69.2479 46.3403 69.1229 46.7972 68.8751C47.0336 68.7478 47.2382 68.5909 47.4155 68.4045V68.9092C47.4155 69.0319 47.5156 69.132 47.6383 69.132H48.534C48.6567 69.132 48.7568 69.0319 48.7568 68.9092V61.928C48.7568 61.8075 48.6567 61.7075 48.534 61.7075Z" fill="#0171BD"/>
<path d="M52.4031 63.1078C52.7418 62.9145 53.1305 62.8168 53.5579 62.8168C54.0944 62.8168 54.549 62.9463 54.9036 63.2032C55.2583 63.4578 55.4833 63.8034 55.5902 64.2557C55.6152 64.3558 55.7038 64.4262 55.8061 64.4262H56.7654C56.8336 64.4262 56.8973 64.3944 56.9382 64.3421C56.9814 64.2898 56.9973 64.2194 56.9814 64.1534C56.8086 63.3714 56.4176 62.744 55.8198 62.2848C55.2242 61.8302 54.4626 61.6006 53.5556 61.6006C52.8623 61.6006 52.2371 61.7597 51.6938 62.0711C51.1482 62.3849 50.714 62.8372 50.4071 63.4124C50.1003 63.983 49.9457 64.6581 49.9457 65.4151C49.9457 66.1744 50.1003 66.8473 50.4071 67.4178C50.714 67.993 51.1482 68.4454 51.6938 68.7591C52.2371 69.0705 52.8645 69.2296 53.5556 69.2296C54.4535 69.2296 55.2151 68.9955 55.8129 68.5317C56.4154 68.0657 56.8086 67.4428 56.9814 66.679C56.9973 66.6131 56.9814 66.5426 56.9382 66.4904C56.895 66.4381 56.8314 66.4062 56.7632 66.4062H55.8039C55.6993 66.4062 55.6106 66.4767 55.5879 66.579C55.4811 67.0405 55.256 67.3883 54.9014 67.6452C54.5468 67.902 54.0921 68.0316 53.5556 68.0316C53.1282 68.0316 52.7395 67.9339 52.4008 67.7406C52.0666 67.552 51.7961 67.2587 51.6006 66.8745C51.4006 66.4813 51.2983 65.9902 51.2983 65.4151C51.2983 64.84 51.4006 64.3512 51.6006 63.9648C51.7984 63.5874 52.0666 63.2987 52.4031 63.1078Z" fill="#0171BD"/>
<path d="M60.239 63.1078C60.5777 62.9145 60.9664 62.8168 61.3938 62.8168C61.9303 62.8168 62.3849 62.9463 62.7396 63.2032C63.0942 63.4578 63.3192 63.8034 63.4261 64.2557C63.4511 64.3558 63.5397 64.4262 63.642 64.4262H64.6013C64.6695 64.4262 64.7332 64.3944 64.7741 64.3421C64.8173 64.2898 64.8332 64.2194 64.8173 64.1534C64.6445 63.3714 64.2535 62.744 63.6557 62.2848C63.0601 61.8302 62.2985 61.6006 61.3915 61.6006C60.6982 61.6006 60.073 61.7597 59.5297 62.0711C58.9841 62.3849 58.5499 62.8372 58.2431 63.4124C57.9362 63.983 57.7816 64.6581 57.7816 65.4151C57.7816 66.1744 57.9362 66.8473 58.2431 67.4178C58.5499 67.993 58.9841 68.4454 59.5297 68.7591C60.073 69.0705 60.7004 69.2296 61.3915 69.2296C62.2895 69.2296 63.051 68.9955 63.6489 68.5317C64.2513 68.0657 64.6445 67.4428 64.8173 66.679C64.8332 66.6131 64.8173 66.5426 64.7741 66.4904C64.7309 66.4381 64.6673 66.4062 64.5991 66.4062H63.6398C63.5352 66.4062 63.4465 66.4767 63.4238 66.579C63.317 67.0405 63.0919 67.3883 62.7373 67.6452C62.3827 67.902 61.928 68.0316 61.3915 68.0316C60.9641 68.0316 60.5754 67.9339 60.2367 67.7406C59.9025 67.552 59.632 67.2587 59.4365 66.8745C59.2365 66.4813 59.1342 65.9902 59.1342 65.4151C59.1342 64.84 59.2365 64.3512 59.4365 63.9648C59.6343 63.5874 59.9048 63.2987 60.239 63.1078Z" fill="#0171BD"/>
<path d="M66.6995 59.0728C66.4609 59.0728 66.254 59.1569 66.0835 59.3205C65.9107 59.4865 65.8243 59.6979 65.8243 59.948C65.8243 60.1957 65.9107 60.4072 66.0812 60.5776C66.2517 60.7481 66.4609 60.8345 66.6995 60.8345C66.9382 60.8345 67.1474 60.7481 67.3179 60.5776C67.4884 60.4072 67.5747 60.1957 67.5747 59.948C67.5747 59.6979 67.4884 59.4888 67.3156 59.3205C67.1451 59.1569 66.9382 59.0728 66.6995 59.0728Z" fill="#0171BD"/>
<path d="M67.1474 61.7075H66.2517C66.129 61.7075 66.029 61.8075 66.029 61.9303V68.9115C66.029 69.0342 66.129 69.1342 66.2517 69.1342H67.1474C67.2702 69.1342 67.3702 69.0342 67.3702 68.9115V61.9303C67.3702 61.8075 67.2702 61.7075 67.1474 61.7075Z" fill="#0171BD"/>
<path d="M70.73 61.5212C70.7641 61.5416 70.8028 61.5507 70.8414 61.5507C70.8801 61.5507 70.9187 61.5416 70.9528 61.5212L73.5739 60.0004C73.6421 59.9595 73.6853 59.8867 73.6853 59.8071V59.0024C73.6853 58.9206 73.6421 58.8478 73.5693 58.8069C73.4989 58.7683 73.4125 58.7705 73.3443 58.8137L70.7232 60.4505C70.6573 60.4914 70.6187 60.5619 70.6187 60.6392V61.3302C70.6187 61.4075 70.6618 61.4825 70.73 61.5212Z" fill="#0171BD"/>
<path d="M74.1513 62.0735C73.5875 61.7621 72.951 61.6052 72.26 61.6052C71.5689 61.6052 70.9346 61.7621 70.3754 62.0735C69.8139 62.3872 69.3638 62.8373 69.0365 63.4125C68.7114 63.9853 68.5477 64.6605 68.5477 65.4197C68.5477 66.179 68.7091 66.8542 69.0297 67.427C69.3502 68.0022 69.798 68.4523 70.355 68.766C70.9096 69.0774 71.5439 69.2365 72.2349 69.2365C72.926 69.2365 73.5648 69.0797 74.1308 68.7683C74.7014 68.4545 75.1583 68.0022 75.4834 67.4225C75.8085 66.8451 75.9722 66.1722 75.9722 65.422C75.9722 64.6628 75.8108 63.9876 75.4902 63.4147C75.1697 62.8373 74.7196 62.3872 74.1513 62.0735ZM72.2349 68.009C71.8144 68.009 71.4211 67.9135 71.0688 67.7226C70.721 67.5361 70.4368 67.2474 70.2254 66.8655C70.0117 66.4791 69.9026 65.9926 69.9026 65.4197C69.9026 64.8469 70.0117 64.3604 70.2254 63.974C70.4368 63.5921 70.7232 63.3033 71.0756 63.1169C71.4325 62.926 71.828 62.8305 72.2486 62.8305C72.6691 62.8305 73.0647 62.9283 73.4216 63.1169C73.7739 63.3033 74.0626 63.5943 74.2786 63.9762C74.4968 64.3627 74.6082 64.8469 74.6082 65.4197C74.6082 65.9903 74.4946 66.4768 74.2741 66.861C74.0536 67.2452 73.7626 67.5339 73.4102 67.7226C73.051 67.9135 72.6578 68.009 72.2349 68.009Z" fill="#0171BD"/>
<path d="M80.6596 61.5779C80.0959 61.5779 79.5821 61.7006 79.1343 61.9439C78.8956 62.0734 78.6864 62.2326 78.5046 62.4235V61.9302C78.5046 61.8075 78.4046 61.7075 78.2818 61.7075H77.3861C77.2634 61.7075 77.1634 61.8075 77.1634 61.9302V68.9114C77.1634 69.0342 77.2634 69.1342 77.3861 69.1342H78.2818C78.4046 69.1342 78.5046 69.0342 78.5046 68.9114V65.0991C78.5046 64.3353 78.6864 63.7534 79.0456 63.3715C79.4048 62.9896 79.8799 62.8032 80.4937 62.8032C81.0915 62.8032 81.5462 62.9759 81.8849 63.3351C82.2213 63.692 82.3918 64.2239 82.3918 64.9196V68.9091C82.3918 69.0319 82.4919 69.1319 82.6146 69.1319H83.4966C83.6194 69.1319 83.7194 69.0319 83.7194 68.9091V64.8173C83.7194 63.7807 83.4307 62.9714 82.8601 62.4144C82.2918 61.8598 81.5507 61.5779 80.6596 61.5779Z" fill="#0171BD"/>
<path d="M95.3721 67.0065C95.5699 66.7246 95.7677 66.4086 95.9655 66.0676L96.9361 64.3922C96.9771 64.324 96.9771 64.2376 96.9361 64.1694C96.8975 64.1012 96.8225 64.0581 96.7429 64.0581H95.7836C95.7063 64.0581 95.6336 64.099 95.5926 64.1672L94.7743 65.5379C94.6515 65.7494 94.5424 65.9267 94.4492 66.0676L91.7031 63.2852C91.3917 62.9487 91.1621 62.6577 91.0234 62.4168C90.8938 62.194 90.8302 61.9712 90.8302 61.7371C90.8302 61.4597 90.9256 61.2392 91.1211 61.0665C91.3235 60.8846 91.5872 60.7982 91.9259 60.7982C92.2373 60.7982 92.4874 60.8869 92.6897 61.0733C92.8852 61.2506 92.9761 61.4916 92.9693 61.8121C92.967 61.8712 92.992 61.9303 93.033 61.9735C93.0739 62.0167 93.133 62.0394 93.1921 62.0394H94.0877C94.206 62.0394 94.306 61.9462 94.3105 61.8257C94.3401 61.171 94.1264 60.63 93.6763 60.2185C93.2353 59.8162 92.6601 59.6116 91.9668 59.6116C91.2325 59.6116 90.6347 59.8093 90.1846 60.1958C89.7254 60.5913 89.4935 61.1165 89.4935 61.7507C89.4935 62.1144 89.5708 62.46 89.7208 62.7737C89.8322 63.0078 89.9959 63.2556 90.205 63.517C89.6163 63.7853 89.1525 64.1376 88.8229 64.5695C88.4364 65.0765 88.2409 65.6766 88.2409 66.354C88.2409 66.9315 88.3819 67.4475 88.6592 67.8908C88.9366 68.334 89.3275 68.6819 89.8231 68.9251C90.3119 69.1661 90.8779 69.2865 91.5076 69.2865C92.1578 69.2865 92.7533 69.1661 93.2739 68.9274C93.7331 68.7182 94.1696 68.4045 94.5765 67.9908L95.629 69.066C95.6699 69.1092 95.729 69.132 95.7881 69.132H96.952C97.043 69.132 97.1225 69.0774 97.1566 68.9956C97.1907 68.9137 97.1725 68.816 97.1089 68.7523L95.3721 67.0065ZM92.7511 67.7885C92.3874 67.9681 91.9668 68.059 91.5008 68.059C91.1211 68.059 90.7824 67.9817 90.4915 67.8294C90.205 67.6794 89.9777 67.4702 89.8163 67.2111C89.6549 66.9519 89.5753 66.6609 89.5753 66.3245C89.5753 65.4607 90.0664 64.8423 91.0734 64.4377L93.674 67.0747C93.3785 67.3929 93.0693 67.6316 92.7511 67.7885Z" fill="#0171BD"/>
<path d="M106.968 60.3117C106.234 59.9389 105.343 59.7502 104.324 59.7502H101.678C101.555 59.7502 101.455 59.8503 101.455 59.973V68.9092C101.455 69.0319 101.555 69.132 101.678 69.132H104.324C105.343 69.132 106.231 68.9456 106.968 68.5773C107.714 68.2045 108.291 67.6589 108.687 66.9519C109.08 66.2518 109.278 65.4129 109.278 64.4582C109.278 63.4943 109.08 62.6509 108.687 61.9462C108.291 61.2392 107.711 60.6891 106.968 60.3117ZM102.794 60.9369H104.322C105.499 60.9369 106.402 61.2483 107.007 61.8621C107.614 62.4759 107.92 63.3511 107.92 64.4604C107.92 65.5607 107.614 66.4268 107.007 67.0315C106.402 67.6362 105.497 67.9431 104.32 67.9431H102.792V60.9369H102.794Z" fill="#0171BD"/>
<path d="M111.596 61.7075H110.701C110.578 61.7075 110.478 61.8075 110.478 61.9303V68.9115C110.478 69.0342 110.578 69.1342 110.701 69.1342H111.596C111.719 69.1342 111.819 69.0342 111.819 68.9115V61.9303C111.819 61.8075 111.721 61.7075 111.596 61.7075Z" fill="#0171BD"/>
<path d="M111.151 59.0728C110.912 59.0728 110.705 59.1569 110.535 59.3205C110.362 59.4865 110.276 59.6979 110.276 59.948C110.276 60.1957 110.362 60.4072 110.532 60.5776C110.703 60.7481 110.91 60.8345 111.151 60.8345C111.389 60.8345 111.599 60.7481 111.769 60.5776C111.94 60.4072 112.026 60.1957 112.026 59.948C112.026 59.6979 111.94 59.4865 111.767 59.3205C111.594 59.1569 111.387 59.0728 111.151 59.0728Z" fill="#0171BD"/>
<path d="M117.45 65.3037C117.145 65.1719 116.729 65.0355 116.222 64.8968C115.813 64.7809 115.484 64.6717 115.245 64.5785C115.029 64.4944 114.847 64.374 114.704 64.2239C114.577 64.0921 114.515 63.9216 114.515 63.7056C114.515 63.4624 114.624 63.2601 114.849 63.0896C115.09 62.9077 115.415 62.8145 115.813 62.8145C116.268 62.8145 116.625 62.9236 116.877 63.1373C117.125 63.351 117.257 63.6238 117.279 63.9739C117.286 64.0921 117.384 64.183 117.502 64.183H118.398C118.459 64.183 118.518 64.158 118.559 64.1125C118.603 64.0693 118.623 64.008 118.621 63.9466C118.584 63.2191 118.307 62.6395 117.798 62.2212C117.298 61.8097 116.641 61.6006 115.841 61.6006C115.334 61.6006 114.872 61.6938 114.47 61.8756C114.061 62.0621 113.738 62.3189 113.51 62.6395C113.281 62.9668 113.163 63.3283 113.163 63.7147C113.163 64.2194 113.294 64.6308 113.554 64.9377C113.801 65.2332 114.108 65.4583 114.463 65.6061C114.797 65.747 115.231 65.8879 115.761 66.0266C116.152 66.1266 116.466 66.2221 116.688 66.3062C116.893 66.3835 117.061 66.4904 117.191 66.6199C117.302 66.7313 117.354 66.8723 117.354 67.0496C117.354 67.3224 117.245 67.5474 117.02 67.7338C116.786 67.9293 116.447 68.0271 116.018 68.0271C115.515 68.0271 115.115 67.9202 114.827 67.7065C114.547 67.4997 114.395 67.2405 114.361 66.9086C114.349 66.795 114.254 66.7086 114.14 66.7086H113.219C113.156 66.7086 113.097 66.7359 113.056 66.7813C113.013 66.8268 112.992 66.8904 112.999 66.9518C113.065 67.6543 113.381 68.218 113.94 68.6272C114.483 69.025 115.188 69.2274 116.034 69.2274C116.541 69.2274 116.998 69.1341 117.393 68.95C117.795 68.7636 118.111 68.5045 118.339 68.1794C118.568 67.8498 118.687 67.4679 118.687 67.0428C118.678 66.5836 118.548 66.2039 118.3 65.9175C118.064 65.6538 117.78 65.4447 117.45 65.3037Z" fill="#0171BD"/>
<path d="M125.024 62.069C124.493 61.7599 123.87 61.603 123.167 61.603C122.467 61.603 121.833 61.7576 121.28 62.0668C120.726 62.3759 120.287 62.8283 119.978 63.4103C119.671 63.9854 119.516 64.6606 119.516 65.4198C119.516 66.1791 119.673 66.8542 119.985 67.4248C120.298 68 120.737 68.4523 121.292 68.7661C121.844 69.0775 122.474 69.2366 123.165 69.2366C124.056 69.2366 124.808 69.0047 125.404 68.5455C126 68.0864 126.395 67.4839 126.577 66.7542C126.593 66.6883 126.579 66.6178 126.536 66.5633C126.493 66.5087 126.429 66.4769 126.361 66.4769H125.415C125.315 66.4769 125.227 66.5451 125.199 66.6428C125.084 67.0725 124.856 67.4044 124.499 67.6567C124.142 67.909 123.695 68.0363 123.165 68.0363C122.76 68.0363 122.381 67.9477 122.04 67.7726C121.703 67.5999 121.428 67.343 121.221 67.0043C121.046 66.7179 120.935 66.3769 120.889 65.9881H126.438C126.552 65.9881 126.648 65.9018 126.659 65.7881C126.677 65.6176 126.686 65.3744 126.686 65.0607C126.686 64.4287 126.541 63.8445 126.257 63.3239C125.97 62.801 125.556 62.3782 125.024 62.069ZM120.894 64.8129C120.974 64.2082 121.199 63.7444 121.578 63.3989C122.008 63.0079 122.515 62.8169 123.129 62.8169C123.535 62.8169 123.913 62.9033 124.256 63.0738C124.595 63.2443 124.856 63.4876 125.052 63.8195C125.215 64.0968 125.309 64.4287 125.329 64.8129H120.894Z" fill="#0171BD"/>
<path d="M129.355 61.3848H129.905C130.017 61.3848 130.112 61.303 130.126 61.1916C130.176 60.8097 130.348 60.8097 130.442 60.8097C130.519 60.8097 130.587 60.8233 130.646 60.8529C130.721 60.8892 130.812 60.9483 130.924 61.037C131.087 61.1552 131.233 61.2461 131.36 61.3075C131.506 61.378 131.678 61.4121 131.871 61.4121C132.237 61.4121 132.551 61.2848 132.804 61.0347C133.049 60.7892 133.192 60.4482 133.233 60.0208C133.238 59.9595 133.217 59.8958 133.176 59.8504C133.133 59.8049 133.074 59.7776 133.013 59.7776H132.476C132.365 59.7776 132.269 59.8594 132.256 59.9708C132.237 60.1072 132.194 60.2073 132.131 60.2686C132.017 60.3777 131.842 60.3755 131.706 60.3073C131.624 60.2664 131.524 60.2027 131.399 60.1118C131.24 60.0072 131.099 59.9231 130.978 59.8617C130.837 59.7912 130.669 59.7549 130.483 59.7549C130.114 59.7549 129.805 59.8822 129.566 60.13C129.337 60.3687 129.194 60.7074 129.137 61.137C129.128 61.2007 129.148 61.2643 129.189 61.3143C129.23 61.3575 129.289 61.3848 129.355 61.3848Z" fill="#0171BD"/>
<path d="M131.374 61.5779C130.81 61.5779 130.296 61.7006 129.848 61.9439C129.61 62.0734 129.4 62.2326 129.219 62.4235V61.9302C129.219 61.8075 129.119 61.7075 128.996 61.7075H128.1C127.977 61.7075 127.877 61.8075 127.877 61.9302V68.9114C127.877 69.0342 127.977 69.1342 128.1 69.1342H128.996C129.119 69.1342 129.219 69.0342 129.219 68.9114V65.0991C129.219 64.3353 129.4 63.7534 129.76 63.3715C130.119 62.9896 130.594 62.8032 131.208 62.8032C131.806 62.8032 132.26 62.9782 132.599 63.3351C132.935 63.692 133.106 64.2239 133.106 64.9196V68.9091C133.106 69.0319 133.206 69.1319 133.329 69.1319H134.211C134.333 69.1319 134.433 69.0319 134.433 68.9091V64.8173C134.433 63.7807 134.145 62.9714 133.574 62.4144C133.006 61.8598 132.265 61.5779 131.374 61.5779Z" fill="#0171BD"/>
<path d="M142.506 63.4125C142.183 62.8373 141.733 62.3872 141.167 62.0735C140.603 61.7621 139.967 61.6052 139.276 61.6052C138.584 61.6052 137.95 61.7621 137.391 62.0735C136.829 62.3872 136.379 62.8373 136.052 63.4125C135.727 63.9853 135.563 64.6605 135.563 65.4197C135.563 66.179 135.725 66.8542 136.045 67.427C136.366 68.0022 136.811 68.4523 137.371 68.766C137.925 69.0774 138.559 69.2365 139.251 69.2365C139.942 69.2365 140.58 69.0797 141.149 68.7683C141.719 68.4545 142.176 68.0022 142.501 67.4225C142.826 66.8451 142.99 66.1722 142.99 65.422C142.988 64.6605 142.826 63.9853 142.506 63.4125ZM140.423 67.7226C140.067 67.9135 139.671 68.009 139.251 68.009C138.83 68.009 138.437 67.9135 138.084 67.7226C137.737 67.5361 137.452 67.2474 137.241 66.8655C137.027 66.4791 136.918 65.9926 136.918 65.4197C136.918 64.8469 137.027 64.3604 137.241 63.974C137.452 63.5921 137.739 63.3033 138.091 63.1169C138.448 62.926 138.844 62.8305 139.264 62.8305C139.685 62.8305 140.08 62.9283 140.437 63.1169C140.79 63.3033 141.078 63.5943 141.294 63.9762C141.512 64.3627 141.624 64.8492 141.624 65.4197C141.624 65.9903 141.512 66.4768 141.29 66.861C141.067 67.2452 140.776 67.5339 140.423 67.7226Z" fill="#0171BD"/>
</svg>
