<svg width="53" height="53" viewBox="0 0 53 53" fill="none" xmlns="http://www.w3.org/2000/svg">
<circle cx="26.5" cy="26.5" r="26.5" fill="#26436F"/>
<path d="M18.9368 42C33.277 42 41.1216 30.4552 41.1216 20.4611C41.1216 20.1381 41.1216 19.8104 41.1074 19.4874C42.6346 18.4131 43.9528 17.0832 45 15.5599C43.5734 16.171 42.0616 16.5738 40.5136 16.7552C42.1441 15.8083 43.3653 14.3183 43.9502 12.5623C42.4183 13.4441 40.7417 14.0631 38.9936 14.3922C37.8184 13.1762 36.2633 12.3706 34.5692 12.1003C32.8751 11.8299 31.1365 12.1099 29.6227 12.8968C28.1089 13.6837 26.9044 14.9337 26.1958 16.453C25.4872 17.9724 25.314 19.6764 25.7031 21.3011C22.6031 21.1501 19.5704 20.3676 16.8017 19.0045C14.033 17.6413 11.5901 15.728 9.6315 13.3884C8.63718 15.057 8.33374 17.0307 8.78278 18.9088C9.23183 20.7868 10.3997 22.4284 12.0492 23.5002C10.8132 23.4594 9.60424 23.1369 8.52 22.5587V22.6626C8.52213 24.4105 9.14535 26.1041 10.2843 27.4571C11.4233 28.8102 13.0082 29.7396 14.771 30.0883C14.1019 30.2674 13.4107 30.3567 12.7166 30.3537C12.2273 30.3551 11.739 30.3111 11.2584 30.2222C11.7566 31.7268 12.7268 33.0424 14.033 33.9846C15.3391 34.9268 16.9159 35.4485 18.5425 35.4765C15.7793 37.5852 12.3661 38.7288 8.8525 38.7233C8.23339 38.7258 7.6147 38.6911 7 38.6194C10.5661 40.8284 14.7076 42.0013 18.9368 42Z" fill="white"/>
</svg>
